<?xml version="1.0" encoding="UTF-8"?>
<svg width="150px" height="58px" viewBox="0 0 150 58" version="1.1" xmlns="http://www.w3.org/2000/svg" xmlns:xlink="http://www.w3.org/1999/xlink">
    <title>chives_logo</title>
    <defs>
        <linearGradient x1="53.3240075%" y1="100.528805%" x2="44.112661%" y2="-27.1533821%" id="linearGradient-1">
            <stop stop-color="#00904C" offset="0%"></stop>
            <stop stop-color="#38BF00" offset="100%"></stop>
        </linearGradient>
        <linearGradient x1="46.2710845%" y1="29.6272464%" x2="68.4680172%" y2="120.576512%" id="linearGradient-2">
            <stop stop-color="#00AC4E" offset="0%"></stop>
            <stop stop-color="#039048" offset="34%"></stop>
            <stop stop-color="#095E3C" offset="100%"></stop>
        </linearGradient>
        <linearGradient x1="26.5450714%" y1="70.8288701%" x2="112.905566%" y2="5.26814154%" id="linearGradient-3">
            <stop stop-color="#00904C" offset="0%"></stop>
            <stop stop-color="#43BF00" offset="100%"></stop>
        </linearGradient>
        <linearGradient x1="60.8040201%" y1="31.9509766%" x2="25.1256281%" y2="78.2334253%" id="linearGradient-4">
            <stop stop-color="#095E3C" offset="0%"></stop>
            <stop stop-color="#00904C" offset="60%"></stop>
            <stop stop-color="#F6E906" offset="100%"></stop>
        </linearGradient>
        <linearGradient x1="60.5956472%" y1="33.3419933%" x2="26.3459336%" y2="75.797798%" id="linearGradient-5">
            <stop stop-color="#095E3C" offset="0%"></stop>
            <stop stop-color="#00904C" offset="60%"></stop>
            <stop stop-color="#F6E906" offset="100%"></stop>
        </linearGradient>
        <linearGradient x1="63.800905%" y1="29.9410331%" x2="24.0950226%" y2="80.2870539%" id="linearGradient-6">
            <stop stop-color="#095E3C" offset="0%"></stop>
            <stop stop-color="#00904C" offset="60%"></stop>
            <stop stop-color="#F6E906" offset="100%"></stop>
        </linearGradient>
        <linearGradient x1="64.0686922%" y1="29.291736%" x2="24.1743725%" y2="75.4748721%" id="linearGradient-7">
            <stop stop-color="#095E3C" offset="0%"></stop>
            <stop stop-color="#00904C" offset="60%"></stop>
            <stop stop-color="#F6E906" offset="100%"></stop>
        </linearGradient>
        <linearGradient x1="5205.46448%" y1="1780.18776%" x2="-1191.80328%" y2="-366.697584%" id="linearGradient-8">
            <stop stop-color="#095E3C" offset="0%"></stop>
            <stop stop-color="#00904C" offset="44%"></stop>
            <stop stop-color="#F6E906" offset="100%"></stop>
        </linearGradient>
        <linearGradient x1="30.3537275%" y1="16.4906225%" x2="81.126575%" y2="87.9101543%" id="linearGradient-9">
            <stop stop-color="#095E3C" offset="0%"></stop>
            <stop stop-color="#00904C" offset="60%"></stop>
            <stop stop-color="#00AA3F" offset="100%"></stop>
        </linearGradient>
        <linearGradient x1="7.70566478%" y1="43.7343558%" x2="89.4598547%" y2="61.3361605%" id="linearGradient-10">
            <stop stop-color="#095E3C" offset="0%"></stop>
            <stop stop-color="#00904C" offset="60%"></stop>
            <stop stop-color="#BEDD06" offset="100%"></stop>
        </linearGradient>
    </defs>
    <g id="chives_logo" stroke="none" stroke-width="1" fill="none" fill-rule="evenodd">
        <g transform="translate(6.000000, 1.000000)" fill-rule="nonzero">
            <path d="M26.2228165,54.7820199 C24.1289534,55.541981 21.9183209,55.92992 19.6908108,55.9283123 C9.08984353,55.9283123 -0.60859175,46.3915789 0.0493883357,35.6567852 C0.409445235,29.7827596 2.59846373,24.6686771 6.76381223,20.5073115 C10.478293,16.7968137 17.2747653,13.7196017 20.1122048,9.21251778 C21.9387767,6.31055477 22.501963,3.38788051 21.7189189,0.0422190612 C24.126202,3.42611664 23.84899,7.79140825 21.6185491,11.2892176 C19.2104694,15.0650356 12.8083073,17.2046657 9.52398293,20.0994595 C6.48341394,22.7759886 3.99726885,26.1662589 2.628734,29.9954481 C2.628734,29.9954481 0.416614509,38.2249787 4.2744808,45.5806543 C4.2744808,45.5806543 8.95522048,54.7366145 19.3968706,54.787596 C19.3968706,54.787596 24.2321479,54.5302987 25.3123186,53.6556472 L26.2228165,54.7820199 Z" id="路径" fill="url(#linearGradient-1)"></path>
            <path d="M25.3314367,55.0353343 C23.9397303,55.2005954 22.5344666,55.2184849 21.1390043,55.0887055 C10.218606,54.0730583 2.19061166,44.3993172 3.2054623,33.4813087 C4.00204836,24.8972973 12.6378378,18.3310384 20.5375818,16.3108962 C11.76,17.6730583 2.20495021,24.6145092 1.34543385,33.8628734 C0.330583215,44.7808819 8.35857752,54.454623 19.2773826,55.4702703 C21.3021711,55.6597309 23.344054,55.5366806 25.3314367,55.1054339 C25.3314367,55.0823329 25.3314367,55.0584353 25.3314367,55.0353343 Z" id="路径" fill="url(#linearGradient-2)"></path>
            <path d="M18.8145661,55.4423898 C9.34953058,54.4323186 2.35231863,46.0617923 3.10668563,36.5131152 C3.25659219,34.6557818 3.67906189,32.8306268 4.36051209,31.09633 C5.0455761,29.3820768 6.08352774,27.8414794 7.30788051,26.468165 C8.48418943,25.1360266 9.82217542,23.955923 11.2908108,22.9552205 C12.7855174,21.9563587 14.4484233,21.2358202 16.1993741,20.8283357 C19.715505,19.9943101 23.3399716,19.9943101 26.935761,19.8413656 C29.0204267,19.7537411 31.1146515,19.5179516 33.0798293,18.7811095 C33.7645276,18.5365094 34.4101144,18.19386 34.9964154,17.7638691 C34.9964154,17.7638691 37.5518634,16.1077667 38.320569,13.2233286 C38.320569,13.2233286 39.1044097,19.3219915 32.8432432,20.5312091 C30.5331437,20.9765007 28.2007397,21.0999716 25.8595733,21.2178663 C24.9411095,21.2640683 24.020256,21.3142532 23.1033855,21.3907255 C20.8793172,21.5771266 18.637724,21.7683073 16.4757895,22.3530014 C14.7280478,22.8179161 13.0727509,23.5784798 11.5815647,24.6017639 C10.2177486,25.5519718 8.98817674,26.6816024 7.92603129,27.9601707 C6.85489452,29.2337836 5.99164565,30.6685887 5.36819346,32.2115505 C3.97576102,35.6974111 3.26600284,39.7552205 4.60745377,43.3637553 C4.98024709,44.3527917 5.43314966,45.3097482 5.96165007,46.2250925 C6.84745377,47.771266 7.8113229,49.2983215 9.16950213,50.4804552 C10.2154196,51.3901565 11.4931437,52.1341679 12.7541394,52.7053201 C13.7346975,53.1432037 14.7465046,53.5074543 15.7811664,53.7950498 L18.6600284,54.366202 L18.8145661,55.4423898 Z" id="路径" fill="url(#linearGradient-3)"></path>
            <path d="M32.2617354,49.5317212 C32.2346515,49.5627881 32.206771,49.5938549 32.1820768,49.6249218 C32.3461735,49.784239 32.508146,49.9435562 32.6679943,50.1028734 C32.7173826,50.0510953 32.7675676,50.0001138 32.8161593,49.9483357" id="路径" fill="url(#linearGradient-4)"></path>
            <path d="M31.6921764,48.9549929 C31.6571266,48.993229 31.6212802,49.0346515 31.5854339,49.0689047 C31.7606828,49.2282219 31.9343385,49.3891323 32.1064011,49.5516358 C32.1645519,49.4942817 32.2234993,49.437724 32.2808535,49.3795733" id="路径" fill="url(#linearGradient-5)"></path>
            <path d="M31.2150213,48.446771 C31.1680228,48.5041252 31.1186344,48.5598862 31.0708393,48.6164438 C31.2418397,48.7630156 31.4120436,48.9125083 31.5814509,49.0649218 C31.6459744,48.9956188 31.7112945,48.9263158 31.7750213,48.8562162" id="路径" fill="url(#linearGradient-6)"></path>
            <path d="M30.7243243,48.113798 C30.6900711,48.1560171 30.6550213,48.1974395 30.6207681,48.2396586 C30.7636226,48.3570223 30.9062115,48.4762447 31.0485349,48.5973257 C31.1066856,48.5328023 31.1664296,48.469872 31.2237838,48.4053485" id="路径" fill="url(#linearGradient-7)"></path>
            <path d="M27.3922048,21.9147632 C27.5382456,21.8900965 27.6840209,21.8637632 27.8295306,21.8357632 C27.6829587,21.8597632 27.5371835,21.8867632 27.3922048,21.9147632 Z" id="路径" fill="url(#linearGradient-8)"></path>
            <path d="M24.699744,53.9575533 L24.6200853,53.9687055 L33.4255477,50.3705263 C33.4255477,50.3705263 30.8645235,53.4772119 25.4469417,55.1619915 M24.6989474,53.9575533 C21.8503556,54.2427312 19.0431863,54.0619061 16.3347937,53.061394 C14.8351223,52.5199868 13.4185969,51.7713707 12.1264296,50.8373257 C11.429996,50.3377018 10.7747001,49.7830977 10.1668279,49.1788336 C9.9050166,48.9191465 9.64984353,48.6496349 9.40130868,48.3702987 C8.45445539,47.3133039 7.65683017,46.1316071 7.03066856,44.8581508 L6.88170697,44.549872 C6.83152205,44.4471124 6.78054054,44.3443528 6.73832148,44.2384068 L6.47226174,43.601138 L6.23328592,42.9535135 C6.15761024,42.7360455 6.09627312,42.513798 6.02697013,42.2939403 C5.5059959,40.503738 5.31356827,38.6339784 5.45900427,36.775192 C5.51144998,36.1267536 5.60376302,35.4821586 5.73541963,34.845064 C5.75135135,34.7749644 5.76728307,34.7048649 5.78480797,34.6347653 C6.45646272,31.9249353 7.81062734,29.4321535 9.71834993,27.393798 L9.94776671,27.1484495 C10.0226458,27.0687909 10.1070839,26.9891323 10.1867425,26.9094737 L10.4257183,26.6768706 C10.505377,26.5972119 10.5850356,26.5223329 10.6646942,26.4498435 C12.1041252,25.1753058 13.7028734,24.1277952 15.4864296,23.4036984 C15.9881924,23.1998775 16.5003047,23.0225261 17.0206543,22.8723755 C17.5653253,22.7152966 18.1188713,22.5908086 18.6783499,22.4995733 C20.6945092,22.1705832 22.7640398,22.2916643 24.7969275,22.1251778 L25.0359033,22.1044666 C25.7792359,22.0691017 26.5194912,21.9855502 27.2520057,21.8543385 C27.3507824,21.8392034 27.449559,21.8232717 27.5475391,21.8065434 L27.4224751,21.8208819 C27.7084495,21.7619346 27.8486486,21.7181223 27.8486486,21.7181223 C27.5961712,21.7714609 27.3408453,21.8102917 27.083926,21.8344239 L27.416899,21.7850356 C27.1099478,21.825927 26.8029967,21.8615078 26.4960455,21.8917781 C26.0411949,21.9316074 25.5401422,21.9714367 25.0813087,22.0009104 C23.7000284,22.080569 22.3147653,22.0980939 20.927909,22.1450925 C18.2173232,22.2389421 15.567062,22.9706227 13.1922617,24.2807397 C11.9429414,24.9575504 10.7725105,25.7707875 9.70241821,26.7055477 C9.41087653,26.9638691 9.13377641,27.238044 8.87237553,27.5268279 C8.47042788,27.9717813 8.09257169,28.4379192 7.74042674,28.9232432 C7.18850984,29.6929129 6.70347771,30.5084065 6.29064011,31.3607966 C5.53646171,32.8997 5.04508791,34.5539469 4.83687055,36.2550213 C4.77261261,36.6649976 4.72269322,37.0778947 4.68711238,37.4937127 C4.52351191,39.4121694 4.68810692,41.3444771 5.17382646,43.2076245 C5.23914651,43.4370413 5.29570413,43.6672546 5.36739687,43.8942817 L5.58964438,44.56899 L5.84216216,45.2301565 C5.88199147,45.3408819 5.93058321,45.4476245 5.97837838,45.5551636 L6.1201707,45.873798 C6.50322081,46.7170861 6.953413,47.5282312 7.46640114,48.2994026 C7.96583608,49.0470095 8.52529343,49.752725 9.13923186,50.409559 C9.72649032,51.0440238 10.3639674,51.6300871 11.0454623,52.1620484 C12.298363,53.150044 13.6876742,53.9514871 15.1701849,54.5414509 C17.6396017,55.5427596 20.3671124,55.8956472 23.0117781,55.6303841 C23.4299858,55.588165 23.8466003,55.532404 24.260825,55.4599147 C24.6657204,55.3953985 25.0638292,55.2938047 25.450128,55.1564154" id="形状" fill="url(#linearGradient-9)"></path>
            <path d="M29.8791465,47.6573542 C29.9460597,47.5737127 30.0137696,47.4900711 30.0790896,47.4048364 C30.4058835,46.9775103 30.7090398,46.5326152 30.9871977,46.0721479 C31.2549843,45.6273101 31.499597,45.168927 31.7200569,44.6988336 C31.8236131,44.4686202 31.9287624,44.2439829 32.0163869,44.0177525 C32.1040114,43.791522 32.1908393,43.5708677 32.2697013,43.3541963 C32.3485633,43.1375249 32.4130868,42.9224467 32.4807966,42.7169275 C32.5485064,42.5114083 32.6010811,42.3082788 32.6488762,42.1131152 C32.7492461,41.7235846 32.8249218,41.3635277 32.8878521,41.0433001 L32.9675107,40.593229 L33.016899,40.2140541 L33.0384068,40.0547368 C33.0431863,40.0016311 33.0479659,39.9519772 33.0527454,39.9057752 L33.0750498,39.6715789 C33.4898156,39.6753037 33.9012017,39.7466034 34.2930299,39.8826743 L34.2731152,40.0220768 L34.2508108,40.181394 C34.4488407,40.1974631 34.6458758,40.2240535 34.8410811,40.2610526 L34.821963,40.4132006 L34.7924893,40.6521764 C34.7861166,40.6983784 34.779744,40.7485633 34.7733713,40.801138 L34.7446942,40.9755903 L34.6761878,41.3826458 L34.5774111,41.8534282 C34.4977525,42.1887909 34.4053485,42.5647795 34.2810811,42.9686486 C34.2213371,43.1717781 34.1440683,43.3796871 34.0731721,43.5963585 C34.002276,43.8130299 33.9138549,44.0328876 33.8166714,44.2575249 C33.7784353,44.3467425 33.7370128,44.4367568 33.7011664,44.526771 C33.7521479,44.4200284 33.8015363,44.3124893 33.8477383,44.2081366 C33.979175,43.9269417 34.0867141,43.6441536 34.2006259,43.3709246 C34.3145377,43.0976956 34.4029587,42.8252632 34.4977525,42.5647795 C34.5925462,42.3042959 34.6698151,42.0469986 34.7367283,41.8000569 C34.881707,41.3069701 34.9940256,40.8497297 35.0840398,40.4458606 L35.201138,39.8739118 L35.2807966,39.3911807 L35.3150498,39.1848649 L35.339744,38.9952774 L35.3787767,38.6949644 L35.4034708,38.501394 C36.0184353,38.5810526 36.4023898,38.6607112 36.5911807,38.7045235 L36.5529445,38.9219915 L36.5274538,39.0677667 C36.8844149,39.1102394 37.238865,39.1716632 37.589303,39.2517781 L37.5438976,39.473229 L37.483357,39.7727454 L37.4777809,39.8014225 C37.6179801,39.8300996 37.7358748,39.8587767 37.8211095,39.8810811 L37.7772973,40.1081081 L37.7390612,40.3040683 C37.7390612,40.3040683 38.5675107,40.4538265 38.8335704,40.514367 L38.7825889,40.741394 L38.7164723,41.037724 L38.6742532,41.2257183 L38.616899,41.4447795 L38.4751067,41.9434424 L38.2958748,42.5313229 C38.1612518,42.9495306 37.997155,43.41633 37.7948222,43.9173826 C37.6968421,44.1691038 37.5773542,44.424808 37.4634424,44.6916643 C37.3375818,44.9545377 37.2117212,45.2277667 37.0651494,45.5025889 C36.9185775,45.7774111 36.775192,46.0601991 36.6087055,46.3382077 C36.4422191,46.6162162 36.2709531,46.9021906 36.0917212,47.188165 C35.7139529,47.7713179 35.3058037,48.3342181 34.8689616,48.8745377 C34.4172931,49.4333269 33.9351579,49.9667871 33.4247511,50.4724893 C33.3538549,50.5417923 33.2829587,50.6095021 33.211266,50.6772119 M23.2642959,52.3500427 L23.1575533,52.2329445 C22.9424751,51.9836131 22.7250071,51.7366714 22.5027596,51.4961024 C21.3158464,51.7263158 13.9450356,52.9060597 10.2034708,47.5609673 L10.2034708,47.5609673 C9.62316638,46.715302 9.16387503,45.7926975 8.83891892,44.8199147 C8.04233286,42.2071124 8.83254623,38.6280512 10.445633,36.571266 C10.8679048,36.0410159 11.3642087,35.574222 11.9193172,35.1852063 C12.6505832,34.664239 14.7591465,33.1387767 15.5708677,34.4411949 C15.5708677,34.4411949 14.0278805,31.966202 11.6102418,33.1523186 C11.6102418,33.1523186 8.42389758,34.5965292 7.64961593,41.5578947 C7.58440555,42.0596011 7.56573904,42.5662636 7.59385491,43.0714083 C7.32973687,41.1180763 7.45947611,39.1316304 7.97541963,37.2292461 C10.11266,31.4938265 14.3481081,29.3430441 16.638293,28.5751351 C17.3783215,28.3266003 18.6998578,28.5998293 18.7014509,29.5844097 C18.7014509,30.4646373 17.7017354,31.3815078 17.1313798,31.9136273 C17.2006828,31.8491038 17.3998293,31.8291892 17.4882504,31.7901565 C17.7929075,31.6522791 18.078135,31.4749827 18.3366145,31.2628165 C19.2001138,30.5546515 19.8859744,29.2785206 19.3506686,28.1919772 C18.2442105,25.9479943 14.9192603,27.1444666 13.3229018,27.9585775 C13.0656046,28.0900142 12.8162731,28.2302134 12.5709246,28.3807681 C2.55783784,34.5535135 7.08403983,45.1831579 7.08403983,45.1831579 C7.10315789,45.2333428 7.12307255,45.2827312 7.1429872,45.3329161 L7.13581792,45.3376956 C7.13581792,45.3376956 7.16529161,45.4054054 7.21547653,45.5209104 C7.24654339,45.600569 7.27761024,45.6730583 7.30947368,45.7479374 C7.42789948,46.0272736 7.55110479,46.2978473 7.67908962,46.5596586 L7.68466572,46.5596586 C8.0455192,47.3172119 8.71066856,48.5917496 9.29775249,49.1676814 C14.7368421,56.207909 24.2162162,54.208478 24.2162162,54.208478 L24.751522,54.1335989 C24.251266,53.5361593 23.7637553,52.93633 23.265889,52.3548222 L23.2642959,52.3500427 Z M29.8759602,47.6501849 C28.3027027,49.31266 25.7098151,50.5354196 22.501963,51.4937127 L24.7523186,54.1272262 C24.7523186,54.1272262 28.6141679,53.6891038 33.2096728,50.6716358" id="形状" fill="url(#linearGradient-10)"></path>
            <polyline id="路径" fill="#FFFFFF" points="37.9796302 40.3375249 37.071522 42.9798009 37.7295021 40.2921195"></polyline>
            <path d="M55.5220484,29.8002845 C57.9978378,29.8002845 59.9231863,30.5793457 61.2988905,32.1844666 C62.6283926,33.7433855 63.3158464,35.9443528 63.3158464,38.603357 L63.3158464,50.0192319 C64.7831579,50.2943196 65.6543575,50.4777999 65.9294452,50.5696728 C66.3882788,50.6612802 66.616899,50.9823044 66.616899,51.4403414 L66.616899,53.3656899 L59.2333428,53.3656899 L59.2333428,38.603357 C59.2333428,34.9390612 57.5828165,33.0559317 54.3279659,33.0559317 C52.0353912,33.0559317 50.0184353,34.1560171 48.0922902,36.3107824 L48.0922902,50.0654339 L48.6427312,50.1570413 C49.8376102,50.386458 50.4748791,50.5234708 50.6596871,50.5696728 C51.1185206,50.6612802 51.3933428,50.9823044 51.3933428,51.4403414 L51.3933428,53.3656899 L40.6649218,53.3656899 L40.6649218,51.4403414 C40.6649218,50.9815078 40.939744,50.6612802 41.3985775,50.5696728 L43.9659744,50.0654339 L43.9659744,22.969559 C42.2235752,22.6944713 41.2145661,22.510991 40.9389474,22.4191181 C40.4801138,22.3275107 40.2052916,22.0064865 40.2052916,21.5484495 L40.2052916,19.6223044 L48.0914936,19.6223044 L48.0914936,33.2853485 C50.2932575,30.9927738 52.722845,29.8002845 55.5220484,29.8002845 Z" id="路径" fill="#0F9A3B"></path>
            <path d="M101.348848,30.1675107 L101.348848,32.1820768 C101.348848,32.6403793 101.119697,32.915467 100.661394,33.00734 C100.478179,33.00734 99.7445235,33.1905548 98.4150213,33.4661735 L90.2994026,53.4118919 L86.5889047,53.4118919 L78.4708962,33.4685633 C78.0668221,33.3419521 77.6526916,33.2500119 77.2330014,33.1937411 C76.637155,33.1021337 76.3161309,33.0105263 76.2245235,33.0105263 C75.7656899,32.9189189 75.5370697,32.5978947 75.5370697,32.1398578 L75.5370697,30.1675107 L85.94367,30.1675107 L85.94367,32.1390612 C85.94367,32.5978947 85.7142532,32.9181223 85.2562162,33.0097297 C84.981394,33.1013371 84.1561309,33.1929445 82.7342248,33.4685633 L87.6403983,45.9391181 C87.9152205,46.6265718 88.1908393,47.771266 88.4656615,49.2401707 C88.832091,47.7728592 89.1077098,46.6727738 89.382532,45.9391181 L94.334111,33.4685633 C93.9676814,33.3769559 93.0962162,33.2391465 91.7205121,32.9643243 C91.2616785,32.8727169 91.0330583,32.5516927 91.0330583,32.0928592 L91.0330583,30.1675107 L101.348848,30.1675107 Z" id="路径" fill="#0F9A3B"></path>
            <path d="M110.579687,29.8002845 C111.894977,29.7893655 113.200887,30.0224576 114.431181,30.4877383 C115.62606,30.9465718 116.632148,31.5878236 117.458208,32.4592888 C118.348622,33.3930435 119.035678,34.501338 119.47596,35.7141394 C119.970444,37.1285687 120.217024,38.6177497 120.204836,40.116074 C120.204836,40.7581223 120.158634,41.2161593 120.021622,41.4001707 C119.884609,41.5841821 119.562788,41.7188051 119.196358,41.7188051 L103.795164,41.7188051 C103.795164,43.1861166 103.978644,44.4699478 104.345605,45.5702987 C104.712034,46.6703841 105.262475,47.4956472 105.904523,48.229303 C106.523467,48.9573522 107.3103,49.5238283 108.197098,49.8798293 C109.129306,50.2554815 110.126746,50.4425692 111.131721,50.4302703 C112.140199,50.4302703 113.05707,50.3386629 113.790725,50.1116358 C114.452398,49.9041015 115.096266,49.6435709 115.716074,49.3325747 C116.266515,49.0577525 116.724552,48.8283357 117.091778,48.5989189 C117.459004,48.3695021 117.733826,48.2324893 118.008649,48.2324893 C118.324985,48.2138976 118.625356,48.3729896 118.78771,48.6451209 L119.933997,50.1586344 C119.429758,50.8006828 118.833912,51.2587198 118.101849,51.7175533 C117.369787,52.1763869 116.68074,52.5882219 115.855477,52.8638407 C115.04818,53.1419621 114.220402,53.3566305 113.379687,53.505889 C112.546874,53.650405 111.703711,53.7271288 110.858492,53.7353058 C109.336714,53.7494052 107.82656,53.469176 106.411152,52.9100427 C105.035448,52.3596017 103.889957,51.5343385 102.880683,50.4804552 C101.871408,49.4265718 101.138549,48.1424751 100.588108,46.5835562 C100.037667,45.0246373 99.762845,43.2825036 99.762845,41.2655477 C99.7522925,39.7334703 100.016143,38.2118802 100.541906,36.7728023 C101.046145,35.3970982 101.779801,34.113798 102.696671,33.1085064 C103.656111,32.0621408 104.828755,31.2336571 106.135533,30.6789189 C107.511238,30.0830725 109.023954,29.8074538 110.676074,29.8074538 L110.579687,29.8002845 Z M110.717496,32.7803129 C108.745946,32.7803129 107.187027,33.3307539 106.086942,34.4770413 C104.986856,35.6233286 104.254794,37.2276529 103.978378,39.2454054 L116.586743,39.2454054 C116.595145,38.372447 116.455628,37.504371 116.174111,36.6780085 C115.899289,35.8989474 115.578265,35.164495 115.074026,34.6148506 C114.546451,34.0460012 113.906218,33.5932261 113.194083,33.2853485 C112.460427,32.9667141 111.589758,32.8265149 110.672888,32.8265149 L110.717496,32.7803129 Z" id="形状" fill="#0F9A3B"></path>
            <path d="M130.537354,29.8002845 C132.14221,29.8002845 134.160228,30.2129161 136.591408,31.0381792 L136.591408,36.9982361 L134.803073,36.9982361 C134.344239,36.9982361 134.115619,36.8150213 134.024011,36.3561878 C134.024011,36.2643148 133.932404,35.2553058 133.749189,33.3291607 C132.373485,33.0105263 131.181792,32.8249218 130.173314,32.8249218 L130.127112,32.8249218 C128.843812,32.8249218 127.789132,33.1913514 126.963869,33.8333997 C126.138606,34.4754481 125.725974,35.1629018 125.725974,35.9427596 C125.725974,36.7226174 125.909189,37.3184637 126.276415,37.6848933 C126.918464,38.4185491 127.789929,38.9227881 128.93542,39.2892176 C130.08091,39.6556472 131.04478,39.885064 131.777639,40.1606828 L133.978606,40.9859459 C134.712262,41.2607681 135.35431,41.7196017 135.903954,42.180825 C137.188051,43.189303 137.783898,44.5188051 137.783898,46.2155334 C137.783898,48.4165007 137.050242,50.2040398 135.537525,51.533542 C133.978606,52.9092461 131.873229,53.6883073 129.394253,53.6883073 C126.837881,53.6801274 124.299348,53.2621933 121.875277,52.4504125 L121.875277,46.3963585 L123.525804,46.3963585 C123.892764,46.3963585 124.121916,46.5798388 124.213257,46.9467994 C124.213257,47.0846088 124.304865,48.0468848 124.48808,49.8814225 C125.772176,50.5234708 127.376501,50.798293 129.210242,50.798293 C130.723755,50.798293 131.918634,50.3856615 132.786117,49.6520057 C133.565178,48.9645519 133.980996,48.1846942 133.980996,47.3140256 C133.980996,46.443357 133.797781,45.8005121 133.430555,45.3886771 C133.043859,44.9386552 132.575447,44.5659256 132.050071,44.2901849 C131.437195,43.9756318 130.791513,43.7295941 130.124723,43.5565292 C128.107767,42.9144808 126.685861,42.4564438 125.860597,42.0892176 C125.116989,41.7583071 124.422698,41.3261844 123.79744,40.8051209 C122.513343,39.750441 121.872091,38.3293314 121.872091,36.4955903 C121.872091,34.6156472 122.605747,33.1029303 124.073058,31.8188336 C125.631977,30.4431294 127.737354,29.8018777 130.583556,29.8018777 L130.537354,29.8002845 Z" id="路径" fill="#0F9A3B"></path>
            <path d="M72.3124893,25.5457428 L72.3483357,25.5457428 C72.1499858,25.5507428 72.082276,25.5557428 72.3124893,25.5457428 Z" id="路径" fill="#E4EA6C"></path>
            <path d="M72.3483357,25.5469172 L72.3760745,25.5469172 C72.4722357,25.5419172 72.481482,25.5369172 72.3483357,25.5469172 Z" id="路径" fill="#E4EA6C"></path>
            <path d="M68.9230156,30.4096728 C68.6896159,30.8748791 69.5244381,31.8562731 69.2854623,31.7909531 C72.434367,38.4297013 70.9997155,50.9759317 70.596643,53.2916074 L74.6321479,53.2916074 C75.9959033,43.4935989 73.0190612,34.5049218 71.2801138,30.3499289 C71.2809104,30.3451494 71.3414509,29.050697 68.9230156,30.4096728 Z" id="路径" fill="#0F9A3B"></path>
            <path d="M67.3816216,38.4297013 C67.7082219,35.5811095 70.6261166,33.465377 69.7307539,30.5881081 C69.0098435,28.9511238 66.8040967,28.8188905 65.9979516,30.1945946 C64.5091323,33.3952774 67.8452347,36.1777525 67.3816216,38.4297013 Z" id="路径" fill="#D0E505"></path>
            <path d="M77.8670839,33.8421622 C75.8214509,31.8331721 75.9473115,28.2302134 73.1281935,27.166771 C71.3940256,26.7286486 69.9338834,28.3863442 70.5217639,29.8687909 C72.1300711,33.0105263 76.3766714,32.091266 77.8670839,33.8421622 Z" id="路径" fill="#D0E505"></path>
            <path d="M79.6426743,21.54367 C76.9287055,22.469303 73.7638691,20.7391181 71.5501565,22.7823613 C70.3799716,24.1365576 71.2052347,26.1845804 72.7936273,26.3239829 C76.3233001,26.2961024 77.4082504,22.0893314 79.6426743,21.54367 Z" id="路径" fill="#D0E505"></path>
            <path d="M70.4014794,14.2333997 C69.7140256,17.0166714 66.5491892,18.7428734 67.0693599,21.7109531 C67.575192,23.4267994 69.745889,23.839431 70.721707,22.5784353 C72.6072262,19.5960171 69.6542817,16.4096728 70.4014794,14.2333997 Z" id="路径" fill="#D0E505"></path>
            <path d="M58.9585206,18.6297582 C61.0750498,20.5646657 61.0782361,24.1692176 63.9332006,25.130697 C65.6856899,25.505889 67.0821053,23.7972119 66.4408535,22.3370697 C64.7218208,19.2550782 60.5110669,20.3264865 58.9585206,18.6297582 Z" id="路径" fill="#D0E505"></path>
            <path d="M57.0514936,30.5793457 C59.8236131,29.8456899 62.8570128,31.7925462 65.210128,29.91101 C66.4719203,28.642845 65.7916358,26.5414509 64.2167852,26.2913229 C60.6942817,26.069872 59.3185775,30.1906117 57.0514936,30.5793457 Z" id="路径" fill="#D0E505"></path>
            <path d="M71.0650356,26.3215932 C71.0650356,27.6972973 69.7777525,28.8810242 68.4012518,28.8810242 C67.0247511,28.8810242 65.9828165,27.7084495 65.9828165,26.3319488 C65.9828165,24.9554481 67.1036131,23.7828734 68.4793172,23.7828734 C69.8550213,23.7828734 71.064239,24.9450925 71.064239,26.3215932 L71.0650356,26.3215932 Z" id="路径" fill="#0F9A3B"></path>
        </g>
    </g>
</svg>