<svg id="Layer_13" data-name="Layer 13" xmlns="http://www.w3.org/2000/svg" xmlns:xlink="http://www.w3.org/1999/xlink" viewBox="0 0 1024 1024"><defs><style>.cls-1{fill:#fff;}.cls-2{fill:url(#未命名的渐变_53);}.cls-3{fill:url(#linear-gradient);}.cls-4{fill:url(#未命名的渐变_68);}.cls-5{fill:url(#linear-gradient-2);}.cls-6{fill:url(#linear-gradient-3);}.cls-7{fill:url(#linear-gradient-4);}.cls-8{fill:url(#linear-gradient-5);}.cls-9{fill:url(#linear-gradient-6);}.cls-10{fill:url(#未命名的渐变_27);}.cls-11{fill:url(#未命名的渐变_12);}</style><linearGradient id="未命名的渐变_53" x1="471.09" y1="947.85" x2="291.54" y2="-219.18" gradientUnits="userSpaceOnUse"><stop offset="0" stop-color="#00904c"/><stop offset="1" stop-color="#38bf00"/></linearGradient><linearGradient id="linear-gradient" x1="530.45" y1="799.46" x2="815.74" y2="1359.21" gradientTransform="translate(-84.05 -359.88) rotate(5.31)" gradientUnits="userSpaceOnUse"><stop offset="0" stop-color="#00ac4e"/><stop offset="0.34" stop-color="#039048"/><stop offset="1" stop-color="#095e3c"/></linearGradient><linearGradient id="未命名的渐变_68" x1="493.04" y1="1006.58" x2="1168.49" y2="499.35" gradientTransform="translate(-75.95 -308.54) rotate(4.5)" gradientUnits="userSpaceOnUse"><stop offset="0" stop-color="#00904c"/><stop offset="1" stop-color="#43bf00"/></linearGradient><linearGradient id="linear-gradient-2" x1="724.35" y1="840.99" x2="720.66" y2="846.32" gradientUnits="userSpaceOnUse"><stop offset="0" stop-color="#095e3c"/><stop offset="0.6" stop-color="#00904c"/><stop offset="1" stop-color="#f6e906"/></linearGradient><linearGradient id="linear-gradient-3" x1="715.18" y1="831.64" x2="711.29" y2="837.27" xlink:href="#linear-gradient-2"/><linearGradient id="linear-gradient-4" x1="707.22" y1="823.07" x2="702.65" y2="829.68" xlink:href="#linear-gradient-2"/><linearGradient id="linear-gradient-5" x1="698.83" y1="816.61" x2="694.89" y2="822.29" xlink:href="#linear-gradient-2"/><linearGradient id="linear-gradient-6" x1="1012.02" y1="817.02" x2="554.47" y2="282.09" gradientUnits="userSpaceOnUse"><stop offset="0" stop-color="#095e3c"/><stop offset="0.44" stop-color="#00904c"/><stop offset="1" stop-color="#f6e906"/></linearGradient><linearGradient id="未命名的渐变_27" x1="373.93" y1="475.2" x2="707.18" y2="872.31" gradientUnits="userSpaceOnUse"><stop offset="0" stop-color="#095e3c"/><stop offset="0.6" stop-color="#00904c"/><stop offset="1" stop-color="#00aa3f"/></linearGradient><linearGradient id="未命名的渐变_12" x1="332.19" y1="653.82" x2="770.33" y2="765.95" gradientUnits="userSpaceOnUse"><stop offset="0" stop-color="#095e3c"/><stop offset="0.6" stop-color="#00904c"/><stop offset="1" stop-color="#bedd06"/></linearGradient></defs><title>chia_circle</title><circle class="cls-1" cx="512" cy="512" r="512"/><path class="cls-2" d="M620.59,924.26A312.47,312.47,0,0,1,513.72,943c-173.38,0-332-156-321.23-331.53,5.89-96.07,41.7-179.71,109.81-247.77C363,303,474.21,252.7,520.61,179c29.88-47.47,39.1-95.26,26.27-150,39.37,55.34,34.84,126.74-1.64,183.94C505.86,274.7,401.16,309.69,347.44,357c-49.68,43.78-90.34,99.23-112.74,161.85,0,0-36.17,134.6,26.92,254.89,0,0,76.55,149.74,247.32,150.58,0,0,79.08-4.21,96.74-18.51Z"/><path class="cls-3" d="M606,928.41a325.72,325.72,0,0,1-68.57.87C358.84,912.68,227.54,754.46,244.14,575.9,257.19,435.5,398.41,328.13,527.6,295.08,384,317.36,227.78,430.9,213.72,582.14,197.12,760.7,328.42,918.92,507,935.52a324.35,324.35,0,0,0,99-6C606,929.17,606,928.79,606,928.41Z"/><path class="cls-4" d="M499.42,935c-154.8-16.49-269.23-153.39-256.93-309.56A310.56,310.56,0,0,1,263,536.89c11.2-28,28.18-53.23,48.21-75.69,19.24-21.58,41.07-41.3,65.08-57.46A244,244,0,0,1,456.57,369c57.59-13.68,116.89-13.67,175.67-16.13,34.09-1.43,68.34-5.29,100.49-17.34,11.07-4.15,21.9-9.41,31.35-16.58,0,0,41.79-27.09,54.36-74.19,0,0,12.82,99.74-89.58,119.52-37.72,7.29-75.93,9.3-114.22,11.23-15,.75-30.08,1.57-45.08,2.83-36.38,3.05-73,6.17-108.39,15.74a259.27,259.27,0,0,0-80,36.78,302.64,302.64,0,0,0-59.78,54.85,258.46,258.46,0,0,0-41.84,69.53c-22.77,57-34.38,123.37-12.45,182.4a317.66,317.66,0,0,0,22.14,46.79c14.49,25.28,30.25,50.27,52.47,69.59,17.11,14.88,38,27,58.57,36.38a353.74,353.74,0,0,0,49.52,17.82l47.08,9.34Z"/><path class="cls-5" d="M719.4,838.4c-.44.51-.9,1-1.35,1.52q4,3.87,8,7.86c.81-.84,1.62-1.68,2.42-2.53"/><path class="cls-6" d="M710,829c-.57.63-1.16,1.24-1.74,1.86q4.3,3.88,8.51,7.9c1-.94,1.91-1.87,2.86-2.81"/><path class="cls-7" d="M702.23,820.65c-.77.93-1.57,1.84-2.35,2.77q4.2,3.6,8.35,7.34c1.06-1.14,2.12-2.27,3.16-3.42"/><path class="cls-8" d="M694.21,815.19c-.56.69-1.13,1.37-1.7,2.06q3.5,2.88,7,5.85c1-1.05,1.93-2.08,2.87-3.14"/><path class="cls-9" d="M639.7,386.43q3.58-.48,7.15-1C644.47,385.72,642.08,386.07,639.7,386.43Z"/><path class="cls-10" d="M607.91,930.48m-12.24-19.7-1.28.18,144-58.85S696.51,903,607.91,930.48m-12.24-19.69c-46.59,4.66-92.48,1.71-136.76-14.65a279.49,279.49,0,0,1-68.82-36.38,262.51,262.51,0,0,1-32-27.12q-6.42-6.37-12.52-13.23A254.17,254.17,0,0,1,306.74,762l-2.44-5c-.82-1.68-1.65-3.36-2.34-5.09l-4.36-10.36-3.85-10.59c-1.23-3.56-2.24-7.19-3.37-10.79a252.52,252.52,0,0,1-9.29-90.26,259.29,259.29,0,0,1,4.42-31.64c.27-1.15.52-2.3.8-3.44a267.48,267.48,0,0,1,64.33-118.42l3.75-4c1.23-1.35,2.59-2.57,3.88-3.86l3.9-3.8c1.29-1.27,2.59-2.53,4-3.71,23.54-20.79,49.69-38,78.86-49.82a253.2,253.2,0,0,1,25.09-8.69,233.41,233.41,0,0,1,27.12-6.09c33-5.38,66.82-3.41,100.07-6.12l3.91-.33a281.44,281.44,0,0,0,36.25-4.09c1.61-.25,3.23-.51,4.83-.78l-2,.23c4.68-1,7-1.68,7-1.68a110.51,110.51,0,0,1-12.6,1.83l5.45-.81q-7.53,1-15.07,1.74c-7.44.66-15.64,1.27-23.14,1.79-22.59,1.32-45.24,1.6-67.92,2.36a282.12,282.12,0,0,0-126.51,34.93c-20.31,11.23-39.71,24.23-57.08,39.66a173.58,173.58,0,0,0-13.58,13.43,275,275,0,0,0-18.51,22.84,271.48,271.48,0,0,0-23.71,39.86,251.25,251.25,0,0,0-23.77,80q-1.58,10.06-2.45,20.26a277.1,277.1,0,0,0,8,93.45c1.06,3.75,2,7.52,3.16,11.23l3.63,11,4.13,10.81c.65,1.81,1.45,3.56,2.23,5.32l2.32,5.26a282.78,282.78,0,0,0,22,39.67,271,271,0,0,0,27.39,34.51,262.94,262.94,0,0,0,31.17,28.7,270.41,270.41,0,0,0,67.46,38.91c40.34,16.37,85,22.16,128.24,17.81,6.84-.69,13.66-1.6,20.43-2.79a109.48,109.48,0,0,0,19.46-5"/><path class="cls-11" d="M680.38,807.74c1.1-1.37,2.2-2.74,3.27-4.13a241.08,241.08,0,0,0,14.8-21.8,246.41,246.41,0,0,0,12-22.46c1.7-3.76,3.41-7.43,4.85-11.13s2.85-7.31,4.15-10.85,2.35-7.06,3.45-10.43c.95-3.42,2-6.69,2.76-9.88,1.64-6.37,2.88-12.26,3.84-17.5l1.24-7.36.81-6.2.35-2.65q.12-1.3.23-2.44l.36-3.83a62.43,62.43,0,0,1,19.92,3.45l-.32,2.28-.36,2.57a91.64,91.64,0,0,1,9.65,1.34l-.32,2.49-.49,3.84c-.1.76-.2,1.57-.32,2.44l-.47,2.86L758.65,705l-1.62,7.7c-1.24,5.48-2.82,11.63-4.85,18.26-1,3.32-2.23,6.72-3.4,10.27-1.34,3.5-2.65,7.14-4.2,10.81-.62,1.45-1.25,2.93-1.89,4.41.83-1.75,1.64-3.5,2.4-5.25,2.15-4.6,4-9.22,5.78-13.69s3.31-8.93,4.86-13.19c1.36-4.33,2.81-8.46,4-12.51,2.37-8.07,4.21-15.55,5.68-22.21l1.91-9.36,1.31-7.89.56-3.38.4-3.11.63-4.91.41-3.16c10.06,1.35,16.34,2.62,19.43,3.33l-.62,3.55-.42,2.38a165.85,165.85,0,0,1,17.37,3l-.74,3.62-1,4.89-.1.47c2.29.47,4.22.93,5.61,1.28l-.72,3.71-.62,3.2s13.55,2.45,17.9,3.44l-.83,3.71-1.08,4.84-.69,3.07-.94,3.59-2.2,8.35L818,723.91c-2.2,6.83-4.89,14.48-8.19,22.67-1.61,4.11-3.55,8.29-5.42,12.67-2.06,4.29-4.11,8.77-6.45,13.26s-4.74,9.1-7.46,13.67-5.52,9.22-8.46,13.9a324.4,324.4,0,0,1-20,27.58A319.68,319.68,0,0,1,738.4,853.8c-1.15,1.13-2.32,2.24-3.49,3.35M572.23,884.57l-1.75-1.91c-3.52-4.08-7.08-8.11-10.7-12.05-19.41,3.76-140,23.06-201.15-64.36h0a180.06,180.06,0,0,1-22.32-44.83c-13-42.73-.11-101.27,26.28-134.91a115.68,115.68,0,0,1,24.1-22.67c12-8.52,46.45-33.46,59.72-12.17,0,0-25.24-40.48-64.77-21.08,0,0-52.16,23.61-64.77,137.47a134.21,134.21,0,0,0-.92,24.81c-7.42-51.53,6.24-95.55,6.24-95.55,35-93.75,104.23-129,141.68-141.54,12.1-4.06,33.72.4,33.74,16.51,0,14.4-16.35,29.39-25.68,38.1,1.14-1.06,4.39-1.39,5.83-2a62.45,62.45,0,0,0,13.88-8.62c14.13-11.58,25.34-32.46,16.59-50.22-18.09-36.69-72.48-17.14-98.58-3.82-4.2,2.14-8.29,4.44-12.3,6.91-163.76,100.95-89.73,274.8-89.73,274.8.32.82.64,1.63,1,2.45l-.12.07s.49,1.11,1.35,3c.51,1.25,1,2.49,1.53,3.71q2.91,6.85,6,13.28l.09,0c5.9,12.23,16.76,33.1,26.36,42.54,88.91,115.14,244.05,82.45,244.05,82.45l8.75-1.22C588.34,903.89,580.36,894.08,572.23,884.57Zm108.15-76.82c-25.73,27.18-68.14,47.19-120.6,62.86l36.81,43.07s63.16-7.17,138.32-56.52"/><polyline class="cls-1" points="812.87 688.03 798.01 731.25 808.78 687.28"/></svg>