<svg id="Layer_13" data-name="Layer 13" xmlns="http://www.w3.org/2000/svg" xmlns:xlink="http://www.w3.org/1999/xlink" viewBox="0 0 1750.64 717.46"><defs><style>.cls-1{fill:url(#未命名的渐变_53);}.cls-2{fill:url(#linear-gradient);}.cls-3{fill:url(#未命名的渐变_68);}.cls-4{fill:url(#linear-gradient-2);}.cls-5{fill:url(#linear-gradient-3);}.cls-6{fill:url(#linear-gradient-4);}.cls-7{fill:url(#linear-gradient-5);}.cls-8{fill:url(#linear-gradient-6);}.cls-9{fill:url(#未命名的渐变_27);}.cls-10{fill:url(#未命名的渐变_12);}.cls-11{fill:#fff;}.cls-12{fill:#0f9a3b;}.cls-13{fill:#e4ea6c;}.cls-14{fill:#d0e505;}</style><linearGradient id="未命名的渐变_53" x1="226.44" y1="712.81" x2="88.62" y2="-182.97" gradientUnits="userSpaceOnUse"><stop offset="0" stop-color="#00904c"/><stop offset="1" stop-color="#38bf00"/></linearGradient><linearGradient id="linear-gradient" x1="178.41" y1="725.96" x2="397.4" y2="1155.62" gradientTransform="translate(38.49 -381.63) rotate(5.31)" gradientUnits="userSpaceOnUse"><stop offset="0" stop-color="#00ac4e"/><stop offset="0.34" stop-color="#039048"/><stop offset="1" stop-color="#095e3c"/></linearGradient><linearGradient id="未命名的渐变_68" x1="163.81" y1="865.93" x2="682.27" y2="476.58" gradientTransform="translate(27.84 -327.72) rotate(4.5)" gradientUnits="userSpaceOnUse"><stop offset="0" stop-color="#00904c"/><stop offset="1" stop-color="#43bf00"/></linearGradient><linearGradient id="linear-gradient-2" x1="420.84" y1="630.79" x2="418" y2="634.88" gradientUnits="userSpaceOnUse"><stop offset="0" stop-color="#095e3c"/><stop offset="0.6" stop-color="#00904c"/><stop offset="1" stop-color="#f6e906"/></linearGradient><linearGradient id="linear-gradient-3" x1="413.8" y1="623.61" x2="410.81" y2="627.93" xlink:href="#linear-gradient-2"/><linearGradient id="linear-gradient-4" x1="407.69" y1="617.04" x2="404.18" y2="622.11" xlink:href="#linear-gradient-2"/><linearGradient id="linear-gradient-5" x1="401.25" y1="612.08" x2="398.23" y2="616.44" xlink:href="#linear-gradient-2"/><linearGradient id="linear-gradient-6" x1="641.65" y1="612.39" x2="290.44" y2="201.79" gradientUnits="userSpaceOnUse"><stop offset="0" stop-color="#095e3c"/><stop offset="0.44" stop-color="#00904c"/><stop offset="1" stop-color="#f6e906"/></linearGradient><linearGradient id="未命名的渐变_27" x1="151.86" y1="350.02" x2="407.66" y2="654.83" gradientUnits="userSpaceOnUse"><stop offset="0" stop-color="#095e3c"/><stop offset="0.6" stop-color="#00904c"/><stop offset="1" stop-color="#00aa3f"/></linearGradient><linearGradient id="未命名的渐变_12" x1="119.82" y1="487.12" x2="456.14" y2="573.19" gradientUnits="userSpaceOnUse"><stop offset="0" stop-color="#095e3c"/><stop offset="0.6" stop-color="#00904c"/><stop offset="1" stop-color="#bedd06"/></linearGradient></defs><title>1222</title><path class="cls-1" d="M341.19,694.71a239.84,239.84,0,0,1-82,14.39c-133.08,0-254.83-119.72-246.57-254.48,4.52-73.74,32-137.94,84.29-190.18,46.63-46.58,131.95-85.21,167.57-141.79,22.93-36.43,30-73.12,20.17-115.12,30.22,42.48,26.74,97.28-1.26,141.19-30.23,47.4-110.6,74.26-151.83,110.6C93.39,292.92,62.18,335.48,45,383.55c0,0-27.77,103.31,20.66,195.65,0,0,58.76,114.94,189.84,115.58,0,0,60.7-3.23,74.26-14.21Z"/><path class="cls-2" d="M330,697.89a250,250,0,0,1-52.63.67C140.28,685.81,39.5,564.37,52.24,427.31c10-107.76,118.41-190.19,217.58-215.55C159.63,228.86,39.68,316,28.89,432.1,16.15,569.16,116.93,690.6,254,703.35a249,249,0,0,0,76-4.58C330,698.48,330,698.18,330,697.89Z"/><path class="cls-3" d="M248.19,703C129.37,690.32,41.53,585.24,51,465.37a238.38,238.38,0,0,1,15.74-68c8.6-21.52,21.63-40.86,37-58.1a268.1,268.1,0,0,1,50-44.1,187.32,187.32,0,0,1,61.62-26.7C259.5,258,305,258,350.14,256.08c26.17-1.1,52.46-4.06,77.13-13.31A94.36,94.36,0,0,0,451.33,230s32.08-20.79,41.73-57c0,0,9.84,76.56-68.76,91.74-29,5.59-58.28,7.14-87.67,8.62-11.53.58-23.09,1.21-34.6,2.17-27.92,2.34-56.06,4.74-83.2,12.08a199,199,0,0,0-61.44,28.23A232.3,232.3,0,0,0,111.5,358a198.39,198.39,0,0,0-32.11,53.37c-17.48,43.76-26.39,94.7-9.55,140a243.83,243.83,0,0,0,17,35.92c11.12,19.41,23.22,38.58,40.27,53.42,13.13,11.42,29.17,20.76,45,27.93a271.53,271.53,0,0,0,38,13.68l36.14,7.17Z"/><path class="cls-4" d="M417,628.8c-.34.39-.69.78-1,1.17q3.09,3,6.1,6c.62-.65,1.25-1.29,1.86-1.94"/><path class="cls-5" d="M409.85,621.56c-.44.48-.89,1-1.34,1.43q3.3,3,6.54,6.06c.73-.72,1.47-1.43,2.19-2.16"/><path class="cls-6" d="M403.86,615.18c-.59.72-1.21,1.42-1.81,2.13q3.22,2.76,6.41,5.63c.81-.87,1.63-1.74,2.43-2.62"/><path class="cls-7" d="M397.7,611c-.43.53-.87,1.05-1.3,1.58q2.69,2.21,5.37,4.49c.73-.81,1.48-1.6,2.2-2.41"/><path class="cls-8" d="M355.87,281.88q2.75-.37,5.49-.79C359.52,281.33,357.69,281.6,355.87,281.88Z"/><path class="cls-9" d="M331.46,699.48m-9.39-15.12-1,.14,110.54-45.17s-32.15,39-100.16,60.15m-9.39-15.12c-35.76,3.58-71,1.31-105-11.25a214.53,214.53,0,0,1-52.83-27.92,201.5,201.5,0,0,1-24.6-20.82q-4.93-4.89-9.61-10.15a195.1,195.1,0,0,1-29.76-44.09l-1.87-3.87c-.63-1.29-1.27-2.58-1.8-3.91l-3.34-8-3-8.13c-.95-2.73-1.72-5.52-2.59-8.28a193.83,193.83,0,0,1-7.13-69.28A199,199,0,0,1,84,444.43c.2-.88.4-1.76.62-2.64A205.31,205.31,0,0,1,134,350.89l2.88-3.08c.94-1,2-2,3-3l3-2.92c1-1,2-1.94,3-2.85,18.07-16,38.14-29.15,60.53-38.24a194.35,194.35,0,0,1,19.26-6.67,179.16,179.16,0,0,1,20.81-4.68c25.31-4.13,51.29-2.61,76.81-4.7l3-.26a216,216,0,0,0,27.82-3.14c1.24-.19,2.48-.39,3.71-.6l-1.57.18c3.59-.74,5.35-1.29,5.35-1.29A84.82,84.82,0,0,1,352,281.1l4.18-.62q-5.78.77-11.56,1.34c-5.71.5-12,1-17.76,1.37-17.34,1-34.73,1.22-52.14,1.81a216.55,216.55,0,0,0-97.11,26.81,241.32,241.32,0,0,0-43.81,30.44,133.24,133.24,0,0,0-10.42,10.31,211.06,211.06,0,0,0-14.21,17.53,208.38,208.38,0,0,0-18.2,30.6,192.86,192.86,0,0,0-18.25,61.44q-1.21,7.72-1.88,15.55a212.7,212.7,0,0,0,6.11,71.73c.82,2.88,1.53,5.77,2.43,8.62l2.79,8.47,3.17,8.3c.5,1.39,1.11,2.73,1.71,4.08l1.78,4a217.05,217.05,0,0,0,16.9,30.45,208,208,0,0,0,21,26.49,201.83,201.83,0,0,0,23.93,22,207.57,207.57,0,0,0,51.78,29.87c31,12.57,65.24,17,98.44,13.67,5.25-.53,10.48-1.23,15.68-2.14a84,84,0,0,0,14.93-3.81"/><path class="cls-10" d="M387.09,605.27c.84-1.05,1.69-2.1,2.51-3.17A185.05,185.05,0,0,0,401,585.37a189.14,189.14,0,0,0,9.2-17.24c1.3-2.89,2.62-5.71,3.72-8.55s2.19-5.61,3.18-8.33,1.8-5.42,2.65-8,1.51-5.13,2.11-7.58c1.26-4.89,2.21-9.41,3-13.43l1-5.65.62-4.76.27-2q.09-1,.18-1.87l.28-2.94a47.92,47.92,0,0,1,15.29,2.65l-.25,1.75-.28,2a70.34,70.34,0,0,1,7.41,1l-.24,1.91-.37,3c-.08.58-.16,1.21-.24,1.87l-.36,2.19-.86,5.11-1.24,5.91c-1,4.21-2.16,8.93-3.72,14-.75,2.55-1.72,5.16-2.61,7.88s-2,5.48-3.22,8.3c-.48,1.12-1,2.25-1.45,3.38.64-1.34,1.26-2.69,1.84-4,1.65-3.53,3-7.08,4.43-10.51s2.54-6.85,3.73-10.12,2.16-6.5,3-9.6c1.82-6.19,3.23-11.93,4.36-17l1.47-7.18,1-6.06.43-2.59.31-2.38.49-3.77.31-2.43c7.72,1,12.54,2,14.91,2.55l-.48,2.73-.32,1.83a127.3,127.3,0,0,1,13.33,2.31l-.57,2.78-.76,3.76-.07.36c1.76.36,3.24.72,4.31,1l-.55,2.85-.48,2.46s10.4,1.88,13.74,2.64l-.64,2.85-.83,3.72-.53,2.36-.72,2.75L495,533.54l-2.25,7.38c-1.69,5.25-3.75,11.11-6.29,17.4-1.23,3.16-2.73,6.37-4.16,9.72-1.58,3.3-3.16,6.73-5,10.18s-3.64,7-5.73,10.49-4.24,7.08-6.49,10.67a249,249,0,0,1-15.35,21.17,245.38,245.38,0,0,1-18.13,20.06c-.89.87-1.78,1.72-2.68,2.57m-124.87,21-1.34-1.47c-2.7-3.13-5.43-6.23-8.22-9.25-14.9,2.89-107.43,17.7-154.4-49.4h0a138.21,138.21,0,0,1-17.13-34.41c-10-32.8-.08-77.73,20.17-103.55a88.79,88.79,0,0,1,18.5-17.4c9.18-6.54,35.65-25.69,45.84-9.34,0,0-19.37-31.07-49.72-16.18,0,0-40,18.13-49.72,105.52a103,103,0,0,0-.7,19,185.32,185.32,0,0,1,4.79-73.34c26.83-72,80-99,108.75-108.64,9.29-3.12,25.88.31,25.9,12.67,0,11.05-12.55,22.56-19.71,29.24.87-.81,3.37-1.06,4.48-1.55a47.94,47.94,0,0,0,10.65-6.62c10.84-8.89,19.45-24.91,12.73-38.55-13.89-28.17-55.63-13.15-75.67-2.93-3.23,1.65-6.36,3.41-9.44,5.3-125.7,77.49-68.88,210.93-68.88,210.93.24.63.49,1.25.74,1.88l-.09.06s.37.85,1,2.3c.39,1,.78,1.91,1.18,2.85q2.23,5.26,4.64,10.19l.07,0C113,601,121.35,617,128.72,624.23,197,712.61,316,687.51,316,687.51l6.72-.94C316.44,679.07,310.32,671.54,304.07,664.24Zm83-59c-19.75,20.87-52.3,36.22-92.57,48.25l28.25,33.06s48.48-5.5,106.17-43.38"/><polyline class="cls-11" points="488.78 513.38 477.38 546.55 485.64 512.81"/><path class="cls-12" d="M709,381.1c31.08,0,55.25,9.78,72.52,29.93,16.69,19.57,25.32,47.2,25.32,80.58V634.92q27.63,5.18,32.81,6.91c5.76,1.15,8.63,5.18,8.63,10.93v24.17H755.59V491.61c0-46-20.72-69.64-61.58-69.64-28.78,0-54.1,13.81-78.28,40.86V635.5l6.91,1.15c15,2.88,23,4.6,25.32,5.18,5.76,1.15,9.21,5.18,9.21,10.93v24.17H522.49V652.76c0-5.76,3.45-9.78,9.21-10.93l32.23-6.33V295.35q-32.81-5.18-38-6.91c-5.76-1.15-9.21-5.18-9.21-10.93V253.33h99V424.85C643.36,396.07,673.86,381.1,709,381.1Z"/><path class="cls-12" d="M1284.29,385.71V411q0,8.63-8.63,10.36c-2.3,0-11.51,2.3-28.2,5.76L1145.58,677.51H1099L997.09,427.15a93.55,93.55,0,0,0-15.54-3.45c-7.48-1.15-11.51-2.3-12.66-2.3-5.76-1.15-8.63-5.18-8.63-10.93V385.71H1090.9v24.75c0,5.76-2.88,9.78-8.63,10.93-3.45,1.15-13.81,2.3-31.66,5.76L1112.2,583.7c3.45,8.63,6.91,23,10.36,41.44,4.6-18.42,8.06-32.23,11.51-41.44l62.16-156.55c-4.6-1.15-15.54-2.88-32.81-6.33-5.76-1.15-8.63-5.18-8.63-10.94V385.71h129.5Z"/><path class="cls-12" d="M1400.17,381.1a133.55,133.55,0,0,1,48.35,8.63c15,5.76,27.63,13.81,38,24.75a117.12,117.12,0,0,1,25.33,40.86A163.42,163.42,0,0,1,1521,510.6c0,8.06-.58,13.81-2.3,16.12s-5.76,4-10.36,4H1315q0,27.63,6.91,48.35c4.6,13.81,11.51,24.17,19.57,33.38a73.92,73.92,0,0,0,28.78,20.72,95.44,95.44,0,0,0,36.84,6.91c12.66,0,24.17-1.15,33.38-4a162,162,0,0,0,24.17-9.78c6.91-3.45,12.66-6.33,17.27-9.21s8.06-4.6,11.51-4.6a10.66,10.66,0,0,1,9.78,5.18l14.39,19c-6.33,8.06-13.81,13.81-23,19.57s-17.84,10.93-28.2,14.39a205.94,205.94,0,0,1-31.08,8.06,196.22,196.22,0,0,1-31.65,2.88,148.22,148.22,0,0,1-55.83-10.36c-17.27-6.91-31.65-17.27-44.32-30.5s-21.87-29.35-28.78-48.92-10.36-41.44-10.36-66.76a161.12,161.12,0,0,1,9.78-56.4c6.33-17.27,15.54-33.38,27.05-46a124.66,124.66,0,0,1,43.17-30.5c17.27-7.48,36.26-10.94,57-10.94Zm1.73,37.41c-24.75,0-44.32,6.91-58.13,21.3s-23,34.53-26.47,59.86h158.28a97.05,97.05,0,0,0-5.18-32.23c-3.45-9.78-7.48-19-13.81-25.9a70.16,70.16,0,0,0-23.6-16.69c-9.21-4-20.14-5.76-31.65-5.76Z"/><path class="cls-12" d="M1650.71,381.1q30.22,0,76,15.54v74.82h-22.45c-5.76,0-8.63-2.3-9.78-8.06q0-1.73-3.45-38c-17.27-4-32.23-6.33-44.89-6.33h-.58c-16.11,0-29.35,4.6-39.71,12.66s-15.54,16.69-15.54,26.48,2.3,17.27,6.91,21.87c8.06,9.21,19,15.54,33.38,20.14s26.48,7.48,35.68,10.94l27.63,10.36c9.21,3.45,17.27,9.21,24.17,15,16.12,12.66,23.6,29.35,23.6,50.65,0,27.63-9.21,50.07-28.2,66.76-19.57,17.27-46,27.05-77.12,27.05a300.27,300.27,0,0,1-94.39-15.54v-76h20.72q6.91,0,8.63,6.91c0,1.73,1.15,13.81,3.45,36.84,16.12,8.06,36.26,11.51,59.28,11.51,19,0,34-5.18,44.89-14.39,9.78-8.63,15-18.42,15-29.35s-2.3-19-6.91-24.17A59,59,0,0,0,1669.7,563a117.68,117.68,0,0,0-24.17-9.21c-25.32-8.06-43.17-13.81-53.53-18.42a110.86,110.86,0,0,1-25.9-16.12c-16.12-13.24-24.17-31.08-24.17-54.1,0-23.6,9.21-42.59,27.63-58.71,19.57-17.27,46-25.32,81.73-25.32Z"/><path class="cls-13" d="M919.78,327.57h.45C917.74,327.62,916.89,327.67,919.78,327.57Z"/><path class="cls-13" d="M920.23,327.57h.3C921.57,327.52,921.67,327.47,920.23,327.57Z"/><path class="cls-12" d="M877.23,388.75c-2.93,5.84,7.55,18.16,4.55,17.34C921.31,489.43,903.3,646.93,898.24,676H948.9c17.12-123-20.25-235.84-42.08-288C906.83,387.94,907.59,371.69,877.23,388.75Z"/><path class="cls-14" d="M857.88,489.43c4.1-35.76,40.73-62.32,29.49-98.44-9.05-20.55-36.74-22.21-46.86-4.94C821.82,426.23,863.7,461.16,857.88,489.43Z"/><path class="cls-14" d="M989.51,431.84c-25.68-25.22-24.1-70.45-59.49-83.8-21.77-5.5-40.1,15.31-32.72,33.92C917.49,421.4,970.8,409.86,989.51,431.84Z"/><path class="cls-14" d="M1011.8,277.45C977.73,289.07,938,267.35,910.21,293c-14.69,17-4.33,42.71,15.61,44.46C970.13,337.11,983.75,284.3,1011.8,277.45Z"/><path class="cls-14" d="M895.79,185.68c-8.63,34.94-48.36,56.61-41.83,93.87,6.35,21.54,33.6,26.72,45.85,10.89C923.48,253,886.41,213,895.79,185.68Z"/><path class="cls-14" d="M752.14,240.87c26.57,24.29,26.61,69.54,62.45,81.61,22,4.71,39.53-16.74,31.48-35.07C824.49,248.72,771.63,262.17,752.14,240.87Z"/><path class="cls-14" d="M728.2,390.88c34.8-9.21,72.88,15.23,102.42-8.39,15.84-15.92,7.3-42.3-12.47-45.44C773.93,334.27,756.66,386,728.2,390.88Z"/><path class="cls-12" d="M904.12,337.43c0,17.27-16.16,32.13-33.44,32.13s-30.36-14.72-30.36-32,14.07-32,31.34-32,32.45,14.59,32.45,31.87Z"/></svg>